<?xml version="1.0" encoding="UTF-8" standalone="no"?>
<!DOCTYPE svg PUBLIC "-//W3C//DTD SVG 1.1//EN"
 "http://www.w3.org/Graphics/SVG/1.1/DTD/svg11.dtd">
<!-- Generated by graphviz version 2.40.1 (20161225.0304)
 -->
<!-- Title: %0 Pages: 1 -->
<svg width="702pt" height="1746pt"
 viewBox="0.00 0.00 701.70 1746.40" xmlns="http://www.w3.org/2000/svg" xmlns:xlink="http://www.w3.org/1999/xlink">
<g id="graph0" class="graph" transform="scale(1 1) rotate(0) translate(4 1742.4)">
<title>%0</title>
<polygon fill="#ffffff" stroke="transparent" points="-4,4 -4,-1742.4 697.6974,-1742.4 697.6974,4 -4,4"/>
<!-- imageio -->
<g id="node1" class="node">
<title>imageio</title>
<polygon fill="#fffacd" stroke="#000000" stroke-width="2" points="61.1516,-589.6 58.1516,-593.6 37.1516,-593.6 34.1516,-589.6 -.0506,-589.6 -.0506,-553.6 61.1516,-553.6 61.1516,-589.6"/>
<text text-anchor="start" x="8" y="-567.4" font-family="Times,serif" font-size="14.00" fill="#000000">imageio</text>
</g>
<!-- imageiodocs -->
<g id="node2" class="node">
<title>imageiodocs</title>
<polygon fill="#fffacd" stroke="#000000" stroke-width="2" points="204.5958,-1429.6 201.5958,-1433.6 180.5958,-1433.6 177.5958,-1429.6 150.5958,-1429.6 150.5958,-1393.6 204.5958,-1393.6 204.5958,-1429.6"/>
<text text-anchor="start" x="158.5958" y="-1407.4" font-family="Times,serif" font-size="14.00" fill="#000000">docs</text>
</g>
<!-- imageio&#45;&gt;imageiodocs -->
<g id="edge1" class="edge">
<title>imageio&#45;&gt;imageiodocs</title>
<path fill="none" stroke="#000000" d="M33.7585,-589.9258C52.6727,-697.9736 149.593,-1251.633 172.6628,-1383.4204"/>
<polygon fill="#000000" stroke="#000000" points="169.2581,-1384.2688 174.43,-1393.5154 176.1532,-1383.0617 169.2581,-1384.2688"/>
</g>
<!-- imageioimageio -->
<g id="node3" class="node">
<title>imageioimageio</title>
<polygon fill="#fffacd" stroke="#000000" stroke-width="2" points="208.1969,-884.6 205.1969,-888.6 184.1969,-888.6 181.1969,-884.6 146.9947,-884.6 146.9947,-848.6 208.1969,-848.6 208.1969,-884.6"/>
<text text-anchor="start" x="155.0453" y="-862.4" font-family="Times,serif" font-size="14.00" fill="#000000">imageio</text>
</g>
<!-- imageio&#45;&gt;imageioimageio -->
<g id="edge2" class="edge">
<title>imageio&#45;&gt;imageioimageio</title>
<path fill="none" stroke="#000000" d="M39.5275,-589.6095C64.3945,-639.4974 134.2884,-779.7173 163.9793,-839.2827"/>
<polygon fill="#000000" stroke="#000000" points="160.9559,-841.063 168.5495,-848.4514 167.2207,-837.9402 160.9559,-841.063"/>
</g>
<!-- imageiotasks -->
<g id="node4" class="node">
<title>imageiotasks</title>
<polygon fill="#fffacd" stroke="#000000" stroke-width="2" points="204.5958,-589.6 201.5958,-593.6 180.5958,-593.6 177.5958,-589.6 150.5958,-589.6 150.5958,-553.6 204.5958,-553.6 204.5958,-589.6"/>
<text text-anchor="start" x="158.5958" y="-567.4" font-family="Times,serif" font-size="14.00" fill="#000000">tasks</text>
</g>
<!-- imageio&#45;&gt;imageiotasks -->
<g id="edge3" class="edge">
<title>imageio&#45;&gt;imageiotasks</title>
<path fill="none" stroke="#000000" d="M61.376,-571.6C84.2642,-571.6 115.6009,-571.6 139.9674,-571.6"/>
<polygon fill="#000000" stroke="#000000" points="140.277,-575.1001 150.2769,-571.6 140.2769,-568.1001 140.277,-575.1001"/>
</g>
<!-- imageiotests -->
<g id="node5" class="node">
<title>imageiotests</title>
<polygon fill="#fffacd" stroke="#000000" stroke-width="2" points="204.5958,-500.6 201.5958,-504.6 180.5958,-504.6 177.5958,-500.6 150.5958,-500.6 150.5958,-464.6 204.5958,-464.6 204.5958,-500.6"/>
<text text-anchor="start" x="158.5958" y="-478.4" font-family="Times,serif" font-size="14.00" fill="#000000">tests</text>
</g>
<!-- imageio&#45;&gt;imageiotests -->
<g id="edge4" class="edge">
<title>imageio&#45;&gt;imageiotests</title>
<path fill="none" stroke="#000000" d="M60.3073,-553.5895C83.7761,-539.3849 116.5991,-519.5186 141.556,-504.4133"/>
<polygon fill="#000000" stroke="#000000" points="143.6201,-507.2552 150.3629,-499.0829 139.9955,-501.2666 143.6201,-507.2552"/>
</g>
<!-- 1.coveragercl.gitignorel.readthedocs.yamllCHANGELOG.mdlCONTRIBUTORS.txtlLICENSElMANIFEST.inlREADME.mdlsemantic_release_conf.pylsetup.cfglsetup.pyl -->
<g id="node6" class="node">
<title>1.coveragercl.gitignorel.readthedocs.yamllCHANGELOG.mdlCONTRIBUTORS.txtlLICENSElMANIFEST.inlREADME.mdlsemantic_release_conf.pylsetup.cfglsetup.pyl</title>
<polygon fill="none" stroke="#000000" points="258.0854,-446.9001 97.1062,-446.9001 97.1062,-254.2999 258.0854,-254.2999 258.0854,-446.9001"/>
<text text-anchor="start" x="105.101" y="-430.4" font-family="Times,serif" font-size="14.00" fill="#000000">.coveragerc</text>
<text text-anchor="start" x="105.101" y="-413.6" font-family="Times,serif" font-size="14.00" fill="#000000">.gitignore</text>
<text text-anchor="start" x="105.101" y="-396.8" font-family="Times,serif" font-size="14.00" fill="#000000">.readthedocs.yaml</text>
<text text-anchor="start" x="105.101" y="-380" font-family="Times,serif" font-size="14.00" fill="#000000">CHANGELOG.md</text>
<text text-anchor="start" x="105.101" y="-363.2" font-family="Times,serif" font-size="14.00" fill="#000000">CONTRIBUTORS.txt</text>
<text text-anchor="start" x="105.101" y="-346.4" font-family="Times,serif" font-size="14.00" fill="#000000">LICENSE</text>
<text text-anchor="start" x="105.101" y="-329.6" font-family="Times,serif" font-size="14.00" fill="#000000">MANIFEST.in</text>
<text text-anchor="start" x="105.101" y="-312.8" font-family="Times,serif" font-size="14.00" fill="#000000">README.md</text>
<text text-anchor="start" x="105.101" y="-296" font-family="Times,serif" font-size="14.00" fill="#000000">semantic_release_conf.py</text>
<text text-anchor="start" x="105.101" y="-279.2" font-family="Times,serif" font-size="14.00" fill="#000000">setup.cfg</text>
<text text-anchor="start" x="105.101" y="-262.4" font-family="Times,serif" font-size="14.00" fill="#000000">setup.py</text>
</g>
<!-- imageio&#45;&gt;1.coveragercl.gitignorel.readthedocs.yamllCHANGELOG.mdlCONTRIBUTORS.txtlLICENSElMANIFEST.inlREADME.mdlsemantic_release_conf.pylsetup.cfglsetup.pyl -->
<g id="edge5" class="edge">
<title>imageio&#45;&gt;1.coveragercl.gitignorel.readthedocs.yamllCHANGELOG.mdlCONTRIBUTORS.txtlLICENSElMANIFEST.inlREADME.mdlsemantic_release_conf.pylsetup.cfglsetup.pyl</title>
<path fill="none" stroke="#000000" d="M40.949,-553.475C59.6663,-520.85 97.101,-455.6 97.101,-455.6 97.101,-455.6 97.2565,-455.3972 97.5537,-455.0095"/>
<polygon fill="#000000" stroke="#000000" points="100.3818,-457.0731 103.6882,-447.0074 94.8264,-452.8142 100.3818,-457.0731"/>
</g>
<!-- imageiodocsdevelopment -->
<g id="node7" class="node">
<title>imageiodocsdevelopment</title>
<polygon fill="#fffacd" stroke="#000000" stroke-width="2" points="434.4633,-1682.6 431.4633,-1686.6 410.4633,-1686.6 407.4633,-1682.6 345.8309,-1682.6 345.8309,-1646.6 434.4633,-1646.6 434.4633,-1682.6"/>
<text text-anchor="start" x="353.9893" y="-1660.4" font-family="Times,serif" font-size="14.00" fill="#000000">development</text>
</g>
<!-- imageiodocs&#45;&gt;imageiodocsdevelopment -->
<g id="edge6" class="edge">
<title>imageiodocs&#45;&gt;imageiodocsdevelopment</title>
<path fill="none" stroke="#000000" d="M187.5281,-1429.8455C215.6998,-1481.5967 294.0906,-1625.6 294.0906,-1625.6 294.0906,-1625.6 314.3911,-1633.8422 336.3272,-1642.7485"/>
<polygon fill="#000000" stroke="#000000" points="335.192,-1646.065 345.7741,-1646.5841 337.8253,-1639.5792 335.192,-1646.065"/>
</g>
<!-- imageiodocsformats -->
<g id="node8" class="node">
<title>imageiodocsformats</title>
<polygon fill="#fffacd" stroke="#000000" stroke-width="2" points="419.4092,-1616.6 416.4092,-1620.6 395.4092,-1620.6 392.4092,-1616.6 360.885,-1616.6 360.885,-1580.6 419.4092,-1580.6 419.4092,-1616.6"/>
<text text-anchor="start" x="368.7663" y="-1594.4" font-family="Times,serif" font-size="14.00" fill="#000000">formats</text>
</g>
<!-- imageiodocs&#45;&gt;imageiodocsformats -->
<g id="edge7" class="edge">
<title>imageiodocs&#45;&gt;imageiodocsformats</title>
<path fill="none" stroke="#000000" d="M191.8803,-1429.8703C222.9878,-1469.6576 294.0906,-1560.6 294.0906,-1560.6 294.0906,-1560.6 324.6023,-1572.6704 351.233,-1583.2056"/>
<polygon fill="#000000" stroke="#000000" points="350.2187,-1586.5682 360.805,-1586.9923 352.7938,-1580.059 350.2187,-1586.5682"/>
</g>
<!-- imageiodocsreference -->
<g id="node9" class="node">
<title>imageiodocsreference</title>
<polygon fill="#fffacd" stroke="#000000" stroke-width="2" points="424.2019,-1551.6 421.2019,-1555.6 400.2019,-1555.6 397.2019,-1551.6 356.0923,-1551.6 356.0923,-1515.6 424.2019,-1515.6 424.2019,-1551.6"/>
<text text-anchor="start" x="364.1197" y="-1529.4" font-family="Times,serif" font-size="14.00" fill="#000000">reference</text>
</g>
<!-- imageiodocs&#45;&gt;imageiodocsreference -->
<g id="edge8" class="edge">
<title>imageiodocs&#45;&gt;imageiodocsreference</title>
<path fill="none" stroke="#000000" d="M204.948,-1427.2996C241.7943,-1448.4486 307.637,-1486.2409 350.0743,-1510.5991"/>
<polygon fill="#000000" stroke="#000000" points="348.3406,-1513.6395 358.7558,-1515.5821 351.8253,-1507.5685 348.3406,-1513.6395"/>
</g>
<!-- imageiodocsuser_guide -->
<g id="node10" class="node">
<title>imageiodocsuser_guide</title>
<polygon fill="#fffacd" stroke="#000000" stroke-width="2" points="429.0733,-1456.6 426.0733,-1460.6 405.0733,-1460.6 402.0733,-1456.6 351.2209,-1456.6 351.2209,-1420.6 429.0733,-1420.6 429.0733,-1456.6"/>
<text text-anchor="start" x="359.4346" y="-1434.4" font-family="Times,serif" font-size="14.00" fill="#000000">user_guide</text>
</g>
<!-- imageiodocs&#45;&gt;imageiodocsuser_guide -->
<g id="edge9" class="edge">
<title>imageiodocs&#45;&gt;imageiodocsuser_guide</title>
<path fill="none" stroke="#000000" d="M204.948,-1415.0745C239.3372,-1419.4429 298.9846,-1427.0198 341.2879,-1432.3935"/>
<polygon fill="#000000" stroke="#000000" points="341.013,-1435.8866 351.3743,-1433.6748 341.8951,-1428.9424 341.013,-1435.8866"/>
</g>
<!-- imageiodocs_static -->
<g id="node11" class="node">
<title>imageiodocs_static</title>
<polygon fill="#fffacd" stroke="#000000" stroke-width="2" points="417.1471,-1402.6 414.1471,-1406.6 393.1471,-1406.6 390.1471,-1402.6 363.1471,-1402.6 363.1471,-1366.6 417.1471,-1366.6 417.1471,-1402.6"/>
<text text-anchor="start" x="371.1471" y="-1380.4" font-family="Times,serif" font-size="14.00" fill="#000000">_static</text>
</g>
<!-- imageiodocs&#45;&gt;imageiodocs_static -->
<g id="edge10" class="edge">
<title>imageiodocs&#45;&gt;imageiodocs_static</title>
<path fill="none" stroke="#000000" d="M204.948,-1408.1255C242.5721,-1403.3462 310.4299,-1394.7263 352.7302,-1389.353"/>
<polygon fill="#000000" stroke="#000000" points="353.4207,-1392.7935 362.8999,-1388.0612 352.5385,-1385.8493 353.4207,-1392.7935"/>
</g>
<!-- imageiodocs_templates -->
<g id="node12" class="node">
<title>imageiodocs_templates</title>
<polygon fill="#fffacd" stroke="#000000" stroke-width="2" points="428.2987,-1348.6 425.2987,-1352.6 404.2987,-1352.6 401.2987,-1348.6 351.9955,-1348.6 351.9955,-1312.6 428.2987,-1312.6 428.2987,-1348.6"/>
<text text-anchor="start" x="359.8217" y="-1326.4" font-family="Times,serif" font-size="14.00" fill="#000000">_templates</text>
</g>
<!-- imageiodocs&#45;&gt;imageiodocs_templates -->
<g id="edge11" class="edge">
<title>imageiodocs&#45;&gt;imageiodocs_templates</title>
<path fill="none" stroke="#000000" d="M204.6149,-1399.0756C239.0286,-1383.1234 294.0906,-1357.6 294.0906,-1357.6 294.0906,-1357.6 318.06,-1350.8626 342.0518,-1344.1188"/>
<polygon fill="#000000" stroke="#000000" points="343.2272,-1347.4242 351.907,-1341.3487 341.333,-1340.6853 343.2272,-1347.4242"/>
</g>
<!-- 2conf.pylexamples.rstlimageio_ext.pylindex.rstlmake.batlMakefilel -->
<g id="node13" class="node">
<title>2conf.pylexamples.rstlimageio_ext.pylindex.rstlmake.batlMakefilel</title>
<polygon fill="none" stroke="#000000" points="441.3537,-1294.9002 338.9405,-1294.9002 338.9405,-1186.2998 441.3537,-1186.2998 441.3537,-1294.9002"/>
<text text-anchor="start" x="346.794" y="-1278.4" font-family="Times,serif" font-size="14.00" fill="#000000">conf.py</text>
<text text-anchor="start" x="346.794" y="-1261.6" font-family="Times,serif" font-size="14.00" fill="#000000">examples.rst</text>
<text text-anchor="start" x="346.794" y="-1244.8" font-family="Times,serif" font-size="14.00" fill="#000000">imageio_ext.py</text>
<text text-anchor="start" x="346.794" y="-1228" font-family="Times,serif" font-size="14.00" fill="#000000">index.rst</text>
<text text-anchor="start" x="346.794" y="-1211.2" font-family="Times,serif" font-size="14.00" fill="#000000">make.bat</text>
<text text-anchor="start" x="346.794" y="-1194.4" font-family="Times,serif" font-size="14.00" fill="#000000">Makefile</text>
</g>
<!-- imageiodocs&#45;&gt;2conf.pylexamples.rstlimageio_ext.pylindex.rstlmake.batlMakefilel -->
<g id="edge12" class="edge">
<title>imageiodocs&#45;&gt;2conf.pylexamples.rstlimageio_ext.pylindex.rstlmake.batlMakefilel</title>
<path fill="none" stroke="#000000" d="M197.0944,-1393.5232C230.2576,-1362.7783 294.0906,-1303.6 294.0906,-1303.6 294.0906,-1303.6 310.7931,-1292.6454 330.2686,-1279.8722"/>
<polygon fill="#000000" stroke="#000000" points="332.3019,-1282.7243 338.7443,-1274.3132 328.4628,-1276.8709 332.3019,-1282.7243"/>
</g>
<!-- imageioimageioconfig -->
<g id="node20" class="node">
<title>imageioimageioconfig</title>
<polygon fill="#fffacd" stroke="#000000" stroke-width="2" points="417.1471,-1143.6 414.1471,-1147.6 393.1471,-1147.6 390.1471,-1143.6 363.1471,-1143.6 363.1471,-1107.6 417.1471,-1107.6 417.1471,-1143.6"/>
<text text-anchor="start" x="371.1471" y="-1121.4" font-family="Times,serif" font-size="14.00" fill="#000000">config</text>
</g>
<!-- imageioimageio&#45;&gt;imageioimageioconfig -->
<g id="edge19" class="edge">
<title>imageioimageio&#45;&gt;imageioimageioconfig</title>
<path fill="none" stroke="#000000" d="M189.8426,-884.8922C219.7522,-929.566 294.0906,-1040.6 294.0906,-1040.6 294.0906,-1040.6 333.768,-1075.7104 362.1215,-1100.8003"/>
<polygon fill="#000000" stroke="#000000" points="359.9676,-1103.5679 369.776,-1107.5737 364.6065,-1098.3256 359.9676,-1103.5679"/>
</g>
<!-- imageioimageiocore -->
<g id="node21" class="node">
<title>imageioimageiocore</title>
<polygon fill="#fffacd" stroke="#000000" stroke-width="2" points="417.1471,-1031.6 414.1471,-1035.6 393.1471,-1035.6 390.1471,-1031.6 363.1471,-1031.6 363.1471,-995.6 417.1471,-995.6 417.1471,-1031.6"/>
<text text-anchor="start" x="371.1471" y="-1009.4" font-family="Times,serif" font-size="14.00" fill="#000000">core</text>
</g>
<!-- imageioimageio&#45;&gt;imageioimageiocore -->
<g id="edge20" class="edge">
<title>imageioimageio&#45;&gt;imageioimageiocore</title>
<path fill="none" stroke="#000000" d="M203.6588,-884.6251C241.8238,-911.0199 312.9841,-960.2343 355.5096,-989.6448"/>
<polygon fill="#000000" stroke="#000000" points="353.6554,-992.6179 363.871,-995.4275 357.6372,-986.8606 353.6554,-992.6179"/>
</g>
<!-- imageioimageioplugins -->
<g id="node22" class="node">
<title>imageioimageioplugins</title>
<polygon fill="#fffacd" stroke="#000000" stroke-width="2" points="418.8733,-911.6 415.8733,-915.6 394.8733,-915.6 391.8733,-911.6 361.4209,-911.6 361.4209,-875.6 418.8733,-875.6 418.8733,-911.6"/>
<text text-anchor="start" x="369.5342" y="-889.4" font-family="Times,serif" font-size="14.00" fill="#000000">plugins</text>
</g>
<!-- imageioimageio&#45;&gt;imageioimageioplugins -->
<g id="edge21" class="edge">
<title>imageioimageio&#45;&gt;imageioimageioplugins</title>
<path fill="none" stroke="#000000" d="M208.5026,-870.526C246.2093,-875.3159 309.9954,-883.4185 351.0715,-888.6363"/>
<polygon fill="#000000" stroke="#000000" points="350.8885,-892.1411 361.2499,-889.9292 351.7707,-885.1969 350.8885,-892.1411"/>
</g>
<!-- imageioimageioresources -->
<g id="node23" class="node">
<title>imageioimageioresources</title>
<polygon fill="#fffacd" stroke="#000000" stroke-width="2" points="424.5015,-857.6 421.5015,-861.6 400.5015,-861.6 397.5015,-857.6 355.7927,-857.6 355.7927,-821.6 424.5015,-821.6 424.5015,-857.6"/>
<text text-anchor="start" x="363.72" y="-835.4" font-family="Times,serif" font-size="14.00" fill="#000000">resources</text>
</g>
<!-- imageioimageio&#45;&gt;imageioimageioresources -->
<g id="edge22" class="edge">
<title>imageioimageio&#45;&gt;imageioimageioresources</title>
<path fill="none" stroke="#000000" d="M208.5026,-862.674C244.5911,-858.0897 304.5686,-850.4709 345.6614,-845.2509"/>
<polygon fill="#000000" stroke="#000000" points="346.1966,-848.7112 355.6758,-843.9788 345.3144,-841.767 346.1966,-848.7112"/>
</g>
<!-- 9freeze.pylREADME.mdltesting.pylv2.pylv3.pyl__init__.pyl__main__.pyl -->
<g id="node24" class="node">
<title>9freeze.pylREADME.mdltesting.pylv2.pylv3.pyl__init__.pyl__main__.pyl</title>
<polygon fill="none" stroke="#000000" points="438.6386,-803.2006 341.6556,-803.2006 341.6556,-677.9994 438.6386,-677.9994 438.6386,-803.2006"/>
<text text-anchor="start" x="349.902" y="-786.8" font-family="Times,serif" font-size="14.00" fill="#000000">freeze.py</text>
<text text-anchor="start" x="349.902" y="-770" font-family="Times,serif" font-size="14.00" fill="#000000">README.md</text>
<text text-anchor="start" x="349.902" y="-753.2" font-family="Times,serif" font-size="14.00" fill="#000000">testing.py</text>
<text text-anchor="start" x="349.902" y="-736.4" font-family="Times,serif" font-size="14.00" fill="#000000">v2.py</text>
<text text-anchor="start" x="349.902" y="-719.6" font-family="Times,serif" font-size="14.00" fill="#000000">v3.py</text>
<text text-anchor="start" x="349.902" y="-702.8" font-family="Times,serif" font-size="14.00" fill="#000000">__init__.py</text>
<text text-anchor="start" x="349.902" y="-686" font-family="Times,serif" font-size="14.00" fill="#000000">__main__.py</text>
</g>
<!-- imageioimageio&#45;&gt;9freeze.pylREADME.mdltesting.pylv2.pylv3.pyl__init__.pyl__main__.pyl -->
<g id="edge23" class="edge">
<title>imageioimageio&#45;&gt;9freeze.pylREADME.mdltesting.pylv2.pylv3.pyl__init__.pyl__main__.pyl</title>
<path fill="none" stroke="#000000" d="M208.0492,-848.5473C240.5598,-829.2751 292.8229,-798.2936 333.038,-774.4542"/>
<polygon fill="#000000" stroke="#000000" points="334.8659,-777.4394 341.6832,-769.3293 331.2963,-771.4179 334.8659,-777.4394"/>
</g>
<!-- 14clean.pylcopyright.pyldocs.pylhelp.pylinstall_python.ps1lREADME.mdltest.pyl_config.pyl__init__.pyl__main__.pyl -->
<g id="node29" class="node">
<title>14clean.pylcopyright.pyldocs.pylhelp.pylinstall_python.ps1lREADME.mdltest.pyl_config.pyl__init__.pyl__main__.pyl</title>
<polygon fill="none" stroke="#000000" points="449.7039,-659.6 330.5903,-659.6 330.5903,-483.6 449.7039,-483.6 449.7039,-659.6"/>
<text text-anchor="start" x="338.6187" y="-643" font-family="Times,serif" font-size="14.00" fill="#000000">clean.py</text>
<text text-anchor="start" x="338.6187" y="-626.2" font-family="Times,serif" font-size="14.00" fill="#000000">copyright.py</text>
<text text-anchor="start" x="338.6187" y="-609.4" font-family="Times,serif" font-size="14.00" fill="#000000">docs.py</text>
<text text-anchor="start" x="338.6187" y="-592.6" font-family="Times,serif" font-size="14.00" fill="#000000">help.py</text>
<text text-anchor="start" x="338.6187" y="-575.8" font-family="Times,serif" font-size="14.00" fill="#000000">install_python.ps1</text>
<text text-anchor="start" x="338.6187" y="-559" font-family="Times,serif" font-size="14.00" fill="#000000">README.md</text>
<text text-anchor="start" x="338.6187" y="-542.2" font-family="Times,serif" font-size="14.00" fill="#000000">test.py</text>
<text text-anchor="start" x="338.6187" y="-525.4" font-family="Times,serif" font-size="14.00" fill="#000000">_config.py</text>
<text text-anchor="start" x="338.6187" y="-508.6" font-family="Times,serif" font-size="14.00" fill="#000000">__init__.py</text>
<text text-anchor="start" x="338.6187" y="-491.8" font-family="Times,serif" font-size="14.00" fill="#000000">__main__.py</text>
</g>
<!-- imageiotasks&#45;&gt;14clean.pylcopyright.pyldocs.pylhelp.pylinstall_python.ps1lREADME.mdltest.pyl_config.pyl__init__.pyl__main__.pyl -->
<g id="edge28" class="edge">
<title>imageiotasks&#45;&gt;14clean.pylcopyright.pyldocs.pylhelp.pylinstall_python.ps1lREADME.mdltest.pyl_config.pyl__init__.pyl__main__.pyl</title>
<path fill="none" stroke="#000000" d="M204.948,-571.6C233.9315,-571.6 280.8564,-571.6 320.2183,-571.6"/>
<polygon fill="#000000" stroke="#000000" points="320.3088,-575.1001 330.3088,-571.6 320.3088,-568.1001 320.3088,-575.1001"/>
</g>
<!-- imageiotestsfuzzers -->
<g id="node30" class="node">
<title>imageiotestsfuzzers</title>
<polygon fill="#fffacd" stroke="#000000" stroke-width="2" points="418.5582,-465.6 415.5582,-469.6 394.5582,-469.6 391.5582,-465.6 361.736,-465.6 361.736,-429.6 418.5582,-429.6 418.5582,-465.6"/>
<text text-anchor="start" x="369.9423" y="-443.4" font-family="Times,serif" font-size="14.00" fill="#000000">fuzzers</text>
</g>
<!-- imageiotests&#45;&gt;imageiotestsfuzzers -->
<g id="edge29" class="edge">
<title>imageiotests&#45;&gt;imageiotestsfuzzers</title>
<path fill="none" stroke="#000000" d="M204.948,-478.096C242.3411,-471.9386 309.5977,-460.8638 351.948,-453.8901"/>
<polygon fill="#000000" stroke="#000000" points="352.5866,-457.3322 361.885,-452.2538 351.4492,-450.4252 352.5866,-457.3322"/>
</g>
<!-- 15conftest.pyltest_bsdf.pyltest_config.pyltest_core.pyltest_dicom.pyltest_fei_tiff.pyltest_ffmpeg.pyltest_ffmpeg_info.pyltest_fits.pyltest_format.pyltest_freeimage.pyltest_freeimage_suite.pyltest_gdal.pyltest_grab.pyltest_legacy_plugin_wrapper.pyltest_lytro.pyltest_meta.pyltest_npz.pyltest_pillow.pyltest_pillow_legacy.pyltest_simpleitk.pyltest_spe.pyltest_swf.pyltest_tifffile.pyl -->
<g id="node31" class="node">
<title>15conftest.pyltest_bsdf.pyltest_config.pyltest_core.pyltest_dicom.pyltest_fei_tiff.pyltest_ffmpeg.pyltest_ffmpeg_info.pyltest_fits.pyltest_format.pyltest_freeimage.pyltest_freeimage_suite.pyltest_gdal.pyltest_grab.pyltest_legacy_plugin_wrapper.pyltest_lytro.pyltest_meta.pyltest_npz.pyltest_pillow.pyltest_pillow_legacy.pyltest_simpleitk.pyltest_spe.pyltest_swf.pyltest_tifffile.pyl</title>
<polygon fill="none" stroke="#000000" points="486.2601,-411.3 294.0341,-411.3 294.0341,.1 486.2601,.1 486.2601,-411.3"/>
<text text-anchor="start" x="302.0906" y="-394.6" font-family="Times,serif" font-size="14.00" fill="#000000">conftest.py</text>
<text text-anchor="start" x="302.0906" y="-377.8" font-family="Times,serif" font-size="14.00" fill="#000000">test_bsdf.py</text>
<text text-anchor="start" x="302.0906" y="-361" font-family="Times,serif" font-size="14.00" fill="#000000">test_config.py</text>
<text text-anchor="start" x="302.0906" y="-344.2" font-family="Times,serif" font-size="14.00" fill="#000000">test_core.py</text>
<text text-anchor="start" x="302.0906" y="-327.4" font-family="Times,serif" font-size="14.00" fill="#000000">test_dicom.py</text>
<text text-anchor="start" x="302.0906" y="-310.6" font-family="Times,serif" font-size="14.00" fill="#000000">test_fei_tiff.py</text>
<text text-anchor="start" x="302.0906" y="-293.8" font-family="Times,serif" font-size="14.00" fill="#000000">test_ffmpeg.py</text>
<text text-anchor="start" x="302.0906" y="-277" font-family="Times,serif" font-size="14.00" fill="#000000">test_ffmpeg_info.py</text>
<text text-anchor="start" x="302.0906" y="-260.2" font-family="Times,serif" font-size="14.00" fill="#000000">test_fits.py</text>
<text text-anchor="start" x="302.0906" y="-243.4" font-family="Times,serif" font-size="14.00" fill="#000000">test_format.py</text>
<text text-anchor="start" x="302.0906" y="-226.6" font-family="Times,serif" font-size="14.00" fill="#000000">test_freeimage.py</text>
<text text-anchor="start" x="302.0906" y="-209.8" font-family="Times,serif" font-size="14.00" fill="#000000">test_freeimage_suite.py</text>
<text text-anchor="start" x="302.0906" y="-193" font-family="Times,serif" font-size="14.00" fill="#000000">test_gdal.py</text>
<text text-anchor="start" x="302.0906" y="-176.2" font-family="Times,serif" font-size="14.00" fill="#000000">test_grab.py</text>
<text text-anchor="start" x="302.0906" y="-159.4" font-family="Times,serif" font-size="14.00" fill="#000000">test_legacy_plugin_wrapper.py</text>
<text text-anchor="start" x="302.0906" y="-142.6" font-family="Times,serif" font-size="14.00" fill="#000000">test_lytro.py</text>
<text text-anchor="start" x="302.0906" y="-125.8" font-family="Times,serif" font-size="14.00" fill="#000000">test_meta.py</text>
<text text-anchor="start" x="302.0906" y="-109" font-family="Times,serif" font-size="14.00" fill="#000000">test_npz.py</text>
<text text-anchor="start" x="302.0906" y="-92.2" font-family="Times,serif" font-size="14.00" fill="#000000">test_pillow.py</text>
<text text-anchor="start" x="302.0906" y="-75.4" font-family="Times,serif" font-size="14.00" fill="#000000">test_pillow_legacy.py</text>
<text text-anchor="start" x="302.0906" y="-58.6" font-family="Times,serif" font-size="14.00" fill="#000000">test_simpleitk.py</text>
<text text-anchor="start" x="302.0906" y="-41.8" font-family="Times,serif" font-size="14.00" fill="#000000">test_spe.py</text>
<text text-anchor="start" x="302.0906" y="-25" font-family="Times,serif" font-size="14.00" fill="#000000">test_swf.py</text>
<text text-anchor="start" x="302.0906" y="-8.2" font-family="Times,serif" font-size="14.00" fill="#000000">test_tifffile.py</text>
</g>
<!-- imageiotests&#45;&gt;15conftest.pyltest_bsdf.pyltest_config.pyltest_core.pyltest_dicom.pyltest_fei_tiff.pyltest_ffmpeg.pyltest_ffmpeg_info.pyltest_fits.pyltest_format.pyltest_freeimage.pyltest_freeimage_suite.pyltest_gdal.pyltest_grab.pyltest_legacy_plugin_wrapper.pyltest_lytro.pyltest_meta.pyltest_npz.pyltest_pillow.pyltest_pillow_legacy.pyltest_simpleitk.pyltest_spe.pyltest_swf.pyltest_tifffile.pyl -->
<g id="edge30" class="edge">
<title>imageiotests&#45;&gt;15conftest.pyltest_bsdf.pyltest_config.pyltest_core.pyltest_dicom.pyltest_fei_tiff.pyltest_ffmpeg.pyltest_ffmpeg_info.pyltest_fits.pyltest_format.pyltest_freeimage.pyltest_freeimage_suite.pyltest_gdal.pyltest_grab.pyltest_legacy_plugin_wrapper.pyltest_lytro.pyltest_meta.pyltest_npz.pyltest_pillow.pyltest_pillow_legacy.pyltest_simpleitk.pyltest_spe.pyltest_swf.pyltest_tifffile.pyl</title>
<path fill="none" stroke="#000000" d="M204.8477,-473.459C228.1998,-465.6261 258.0906,-455.6 258.0906,-455.6 258.0906,-455.6 271.2768,-430.6369 289.3156,-396.4871"/>
<polygon fill="#000000" stroke="#000000" points="292.4252,-398.0936 294.0012,-387.6166 286.2357,-394.8241 292.4252,-398.0936"/>
</g>
<!-- 3index.rstlplugins.rstl -->
<g id="node14" class="node">
<title>3index.rstlplugins.rstl</title>
<polygon fill="none" stroke="#000000" points="645.1726,-1738.2019 570.7284,-1738.2019 570.7284,-1696.9981 645.1726,-1696.9981 645.1726,-1738.2019"/>
<text text-anchor="start" x="578.5897" y="-1721.8" font-family="Times,serif" font-size="14.00" fill="#000000">index.rst</text>
<text text-anchor="start" x="578.5897" y="-1705" font-family="Times,serif" font-size="14.00" fill="#000000">plugins.rst</text>
</g>
<!-- imageiodocsdevelopment&#45;&gt;3index.rstlplugins.rstl -->
<g id="edge13" class="edge">
<title>imageiodocsdevelopment&#45;&gt;3index.rstlplugins.rstl</title>
<path fill="none" stroke="#000000" d="M434.4854,-1675.3892C471.0939,-1684.2975 522.9368,-1696.9129 560.401,-1706.0294"/>
<polygon fill="#000000" stroke="#000000" points="560.018,-1709.5382 570.562,-1708.5019 561.6731,-1702.7367 560.018,-1709.5382"/>
</g>
<!-- 4formats_by_plugin.rstlindex.rstlvideo_formats.rstl -->
<g id="node15" class="node">
<title>4formats_by_plugin.rstlindex.rstlvideo_formats.rstl</title>
<polygon fill="none" stroke="#000000" points="677.9891,-1679.0014 537.9119,-1679.0014 537.9119,-1620.1986 677.9891,-1620.1986 677.9891,-1679.0014"/>
<text text-anchor="start" x="545.9312" y="-1662.2" font-family="Times,serif" font-size="14.00" fill="#000000">formats_by_plugin.rst</text>
<text text-anchor="start" x="545.9312" y="-1645.4" font-family="Times,serif" font-size="14.00" fill="#000000">index.rst</text>
<text text-anchor="start" x="545.9312" y="-1628.6" font-family="Times,serif" font-size="14.00" fill="#000000">video_formats.rst</text>
</g>
<!-- imageiodocsformats&#45;&gt;4formats_by_plugin.rstlindex.rstlvideo_formats.rstl -->
<g id="edge14" class="edge">
<title>imageiodocsformats&#45;&gt;4formats_by_plugin.rstlindex.rstlvideo_formats.rstl</title>
<path fill="none" stroke="#000000" d="M419.521,-1605.4781C447.2345,-1611.9674 490.0563,-1621.9944 527.8787,-1630.8507"/>
<polygon fill="#000000" stroke="#000000" points="527.3495,-1634.3214 537.8842,-1633.1935 528.9455,-1627.5057 527.3495,-1634.3214"/>
</g>
<!-- 5core_v3.rstlindex.rstluserapi.rstl -->
<g id="node16" class="node">
<title>5core_v3.rstlindex.rstluserapi.rstl</title>
<polygon fill="none" stroke="#000000" points="647.0372,-1603.0014 568.8638,-1603.0014 568.8638,-1544.1986 647.0372,-1544.1986 647.0372,-1603.0014"/>
<text text-anchor="start" x="576.6577" y="-1586.2" font-family="Times,serif" font-size="14.00" fill="#000000">core_v3.rst</text>
<text text-anchor="start" x="576.6577" y="-1569.4" font-family="Times,serif" font-size="14.00" fill="#000000">index.rst</text>
<text text-anchor="start" x="576.6577" y="-1552.6" font-family="Times,serif" font-size="14.00" fill="#000000">userapi.rst</text>
</g>
<!-- imageiodocsreference&#45;&gt;5core_v3.rstlindex.rstluserapi.rstl -->
<g id="edge15" class="edge">
<title>imageiodocsreference&#45;&gt;5core_v3.rstlindex.rstluserapi.rstl</title>
<path fill="none" stroke="#000000" d="M424.1789,-1539.85C460.2456,-1546.4737 517.5476,-1556.9973 558.5765,-1564.5324"/>
<polygon fill="#000000" stroke="#000000" points="558.1663,-1568.0155 568.6341,-1566.3795 559.4308,-1561.1306 558.1663,-1568.0155"/>
</g>
<!-- 6cmdlinescripts.rstldrop27.rstlenvvariables.rstlfreezing.rstlindex.rstlinstallation.rstloverview.rstlrequests.rstlscipy.rstlstandardimages.rstl -->
<g id="node17" class="node">
<title>6cmdlinescripts.rstldrop27.rstlenvvariables.rstlfreezing.rstlindex.rstlinstallation.rstloverview.rstlrequests.rstlscipy.rstlstandardimages.rstl</title>
<polygon fill="none" stroke="#000000" points="668.027,-1526.6 547.874,-1526.6 547.874,-1350.6 668.027,-1350.6 668.027,-1526.6"/>
<text text-anchor="start" x="555.6626" y="-1510" font-family="Times,serif" font-size="14.00" fill="#000000">cmdlinescripts.rst</text>
<text text-anchor="start" x="555.6626" y="-1493.2" font-family="Times,serif" font-size="14.00" fill="#000000">drop27.rst</text>
<text text-anchor="start" x="555.6626" y="-1476.4" font-family="Times,serif" font-size="14.00" fill="#000000">envvariables.rst</text>
<text text-anchor="start" x="555.6626" y="-1459.6" font-family="Times,serif" font-size="14.00" fill="#000000">freezing.rst</text>
<text text-anchor="start" x="555.6626" y="-1442.8" font-family="Times,serif" font-size="14.00" fill="#000000">index.rst</text>
<text text-anchor="start" x="555.6626" y="-1426" font-family="Times,serif" font-size="14.00" fill="#000000">installation.rst</text>
<text text-anchor="start" x="555.6626" y="-1409.2" font-family="Times,serif" font-size="14.00" fill="#000000">overview.rst</text>
<text text-anchor="start" x="555.6626" y="-1392.4" font-family="Times,serif" font-size="14.00" fill="#000000">requests.rst</text>
<text text-anchor="start" x="555.6626" y="-1375.6" font-family="Times,serif" font-size="14.00" fill="#000000">scipy.rst</text>
<text text-anchor="start" x="555.6626" y="-1358.8" font-family="Times,serif" font-size="14.00" fill="#000000">standardimages.rst</text>
</g>
<!-- imageiodocsuser_guide&#45;&gt;6cmdlinescripts.rstldrop27.rstlenvvariables.rstlfreezing.rstlindex.rstlinstallation.rstloverview.rstlrequests.rstlscipy.rstlstandardimages.rstl -->
<g id="edge16" class="edge">
<title>imageiodocsuser_guide&#45;&gt;6cmdlinescripts.rstldrop27.rstlenvvariables.rstlfreezing.rstlindex.rstlinstallation.rstloverview.rstlrequests.rstlscipy.rstlstandardimages.rstl</title>
<path fill="none" stroke="#000000" d="M429.086,-1438.6C459.0435,-1438.6 501.2501,-1438.6 537.141,-1438.6"/>
<polygon fill="#000000" stroke="#000000" points="537.5671,-1442.1001 547.5671,-1438.6 537.5671,-1435.1001 537.5671,-1442.1001"/>
</g>
<!-- 7imageio_logo.pngl -->
<g id="node18" class="node">
<title>7imageio_logo.pngl</title>
<polygon fill="none" stroke="#000000" points="666.9431,-1332.6 548.9579,-1332.6 548.9579,-1296.6 666.9431,-1296.6 666.9431,-1332.6"/>
<text text-anchor="start" x="557.2047" y="-1310.4" font-family="Times,serif" font-size="14.00" fill="#000000">imageio_logo.png</text>
</g>
<!-- imageiodocs_static&#45;&gt;7imageio_logo.pngl -->
<g id="edge17" class="edge">
<title>imageiodocs_static&#45;&gt;7imageio_logo.pngl</title>
<path fill="none" stroke="#000000" d="M417.1598,-1377.0071C445.5709,-1369.0212 486.2036,-1357.6 486.2036,-1357.6 486.2036,-1357.6 522.2036,-1341.6 522.2036,-1341.6 522.2036,-1341.6 530.0305,-1339.1355 540.9549,-1335.6956"/>
<polygon fill="#000000" stroke="#000000" points="542.269,-1338.9513 550.7561,-1332.6094 540.1665,-1332.2745 542.269,-1338.9513"/>
</g>
<!-- 8better_class.rstlformats.rst.templatelplugin.rstl -->
<g id="node19" class="node">
<title>8better_class.rstlformats.rst.templatelplugin.rstl</title>
<polygon fill="none" stroke="#000000" points="671.9141,-1279.0014 543.9869,-1279.0014 543.9869,-1220.1986 671.9141,-1220.1986 671.9141,-1279.0014"/>
<text text-anchor="start" x="551.9687" y="-1262.2" font-family="Times,serif" font-size="14.00" fill="#000000">better_class.rst</text>
<text text-anchor="start" x="551.9687" y="-1245.4" font-family="Times,serif" font-size="14.00" fill="#000000">formats.rst.template</text>
<text text-anchor="start" x="551.9687" y="-1228.6" font-family="Times,serif" font-size="14.00" fill="#000000">plugin.rst</text>
</g>
<!-- imageiodocs_templates&#45;&gt;8better_class.rstlformats.rst.templatelplugin.rstl -->
<g id="edge18" class="edge">
<title>imageiodocs_templates&#45;&gt;8better_class.rstlformats.rst.templatelplugin.rstl</title>
<path fill="none" stroke="#000000" d="M428.3872,-1319.8513C455.1742,-1312.3219 486.2036,-1303.6 486.2036,-1303.6 486.2036,-1303.6 522.2036,-1287.6 522.2036,-1287.6 522.2036,-1287.6 526.9729,-1285.4864 534.2619,-1282.2562"/>
<polygon fill="#000000" stroke="#000000" points="536.1168,-1285.2625 543.8412,-1278.011 533.2806,-1278.8628 536.1168,-1285.2625"/>
</g>
<!-- 10extensions.pylplugins.pyl__init__.pyl -->
<g id="node25" class="node">
<title>10extensions.pylplugins.pyl__init__.pyl</title>
<polygon fill="none" stroke="#000000" points="654.051,-1203.0014 561.85,-1203.0014 561.85,-1144.1986 654.051,-1144.1986 654.051,-1203.0014"/>
<text text-anchor="start" x="569.6507" y="-1186.2" font-family="Times,serif" font-size="14.00" fill="#000000">extensions.py</text>
<text text-anchor="start" x="569.6507" y="-1169.4" font-family="Times,serif" font-size="14.00" fill="#000000">plugins.py</text>
<text text-anchor="start" x="569.6507" y="-1152.6" font-family="Times,serif" font-size="14.00" fill="#000000">__init__.py</text>
</g>
<!-- imageioimageioconfig&#45;&gt;10extensions.pylplugins.pyl__init__.pyl -->
<g id="edge24" class="edge">
<title>imageioimageioconfig&#45;&gt;10extensions.pylplugins.pyl__init__.pyl</title>
<path fill="none" stroke="#000000" d="M417.2917,-1131.5822C450.8285,-1138.9731 508.743,-1151.7364 551.9653,-1161.2619"/>
<polygon fill="#000000" stroke="#000000" points="551.2608,-1164.6905 561.7798,-1163.4248 552.7674,-1157.8546 551.2608,-1164.6905"/>
</g>
<!-- 11fetching.pylfindlib.pylformat.pylimopen.pyllegacy_plugin_wrapper.pylrequest.pylutil.pylv3_plugin_api.pyl__init__.pyl -->
<g id="node26" class="node">
<title>11fetching.pylfindlib.pylformat.pylimopen.pyllegacy_plugin_wrapper.pylrequest.pylutil.pylv3_plugin_api.pyl__init__.pyl</title>
<polygon fill="none" stroke="#000000" points="690.6234,-1126.3001 525.2776,-1126.3001 525.2776,-966.8999 690.6234,-966.8999 690.6234,-1126.3001"/>
<text text-anchor="start" x="533.1142" y="-1109.6" font-family="Times,serif" font-size="14.00" fill="#000000">fetching.py</text>
<text text-anchor="start" x="533.1142" y="-1092.8" font-family="Times,serif" font-size="14.00" fill="#000000">findlib.py</text>
<text text-anchor="start" x="533.1142" y="-1076" font-family="Times,serif" font-size="14.00" fill="#000000">format.py</text>
<text text-anchor="start" x="533.1142" y="-1059.2" font-family="Times,serif" font-size="14.00" fill="#000000">imopen.py</text>
<text text-anchor="start" x="533.1142" y="-1042.4" font-family="Times,serif" font-size="14.00" fill="#000000">legacy_plugin_wrapper.py</text>
<text text-anchor="start" x="533.1142" y="-1025.6" font-family="Times,serif" font-size="14.00" fill="#000000">request.py</text>
<text text-anchor="start" x="533.1142" y="-1008.8" font-family="Times,serif" font-size="14.00" fill="#000000">util.py</text>
<text text-anchor="start" x="533.1142" y="-992" font-family="Times,serif" font-size="14.00" fill="#000000">v3_plugin_api.py</text>
<text text-anchor="start" x="533.1142" y="-975.2" font-family="Times,serif" font-size="14.00" fill="#000000">__init__.py</text>
</g>
<!-- imageioimageiocore&#45;&gt;11fetching.pylfindlib.pylformat.pylimopen.pyllegacy_plugin_wrapper.pylrequest.pylutil.pylv3_plugin_api.pyl__init__.pyl -->
<g id="edge25" class="edge">
<title>imageioimageiocore&#45;&gt;11fetching.pylfindlib.pylformat.pylimopen.pyllegacy_plugin_wrapper.pylrequest.pylutil.pylv3_plugin_api.pyl__init__.pyl</title>
<path fill="none" stroke="#000000" d="M417.2917,-1017.7127C441.8912,-1021.4399 479.6068,-1027.1543 515.0193,-1032.5197"/>
<polygon fill="#000000" stroke="#000000" points="514.5221,-1035.9843 524.9336,-1034.0219 515.5708,-1029.0633 514.5221,-1035.9843"/>
</g>
<!-- 12bsdf.pyldicom.pylexample.pylfeisem.pylffmpeg.pylfits.pylfreeimage.pylfreeimagemulti.pylgdal.pylgrab.pyllytro.pylnpz.pylpillow.pylpillowmulti.pylpillow_info.pylpillow_legacy.pylsimpleitk.pylspe.pylswf.pyltifffile.pyl_bsdf.pyl_dicom.pyl_freeimage.pyl_swf.pyl_tifffile.pyl__init__.pyl -->
<g id="node27" class="node">
<title>12bsdf.pyldicom.pylexample.pylfeisem.pylffmpeg.pylfits.pylfreeimage.pylfreeimagemulti.pylgdal.pylgrab.pyllytro.pylnpz.pylpillow.pylpillowmulti.pylpillow_info.pylpillow_legacy.pylsimpleitk.pylspe.pylswf.pyltifffile.pyl_bsdf.pyl_dicom.pyl_freeimage.pyl_swf.pyl_tifffile.pyl__init__.pyl</title>
<polygon fill="none" stroke="#000000" points="667.4737,-948.9 548.4273,-948.9 548.4273,-504.3 667.4737,-504.3 667.4737,-948.9"/>
<text text-anchor="start" x="556.4389" y="-932.4" font-family="Times,serif" font-size="14.00" fill="#000000">bsdf.py</text>
<text text-anchor="start" x="556.4389" y="-915.6" font-family="Times,serif" font-size="14.00" fill="#000000">dicom.py</text>
<text text-anchor="start" x="556.4389" y="-898.8" font-family="Times,serif" font-size="14.00" fill="#000000">example.py</text>
<text text-anchor="start" x="556.4389" y="-882" font-family="Times,serif" font-size="14.00" fill="#000000">feisem.py</text>
<text text-anchor="start" x="556.4389" y="-865.2" font-family="Times,serif" font-size="14.00" fill="#000000">ffmpeg.py</text>
<text text-anchor="start" x="556.4389" y="-848.4" font-family="Times,serif" font-size="14.00" fill="#000000">fits.py</text>
<text text-anchor="start" x="556.4389" y="-831.6" font-family="Times,serif" font-size="14.00" fill="#000000">freeimage.py</text>
<text text-anchor="start" x="556.4389" y="-814.8" font-family="Times,serif" font-size="14.00" fill="#000000">freeimagemulti.py</text>
<text text-anchor="start" x="556.4389" y="-798" font-family="Times,serif" font-size="14.00" fill="#000000">gdal.py</text>
<text text-anchor="start" x="556.4389" y="-781.2" font-family="Times,serif" font-size="14.00" fill="#000000">grab.py</text>
<text text-anchor="start" x="556.4389" y="-764.4" font-family="Times,serif" font-size="14.00" fill="#000000">lytro.py</text>
<text text-anchor="start" x="556.4389" y="-747.6" font-family="Times,serif" font-size="14.00" fill="#000000">npz.py</text>
<text text-anchor="start" x="556.4389" y="-730.8" font-family="Times,serif" font-size="14.00" fill="#000000">pillow.py</text>
<text text-anchor="start" x="556.4389" y="-714" font-family="Times,serif" font-size="14.00" fill="#000000">pillowmulti.py</text>
<text text-anchor="start" x="556.4389" y="-697.2" font-family="Times,serif" font-size="14.00" fill="#000000">pillow_info.py</text>
<text text-anchor="start" x="556.4389" y="-680.4" font-family="Times,serif" font-size="14.00" fill="#000000">pillow_legacy.py</text>
<text text-anchor="start" x="556.4389" y="-663.6" font-family="Times,serif" font-size="14.00" fill="#000000">simpleitk.py</text>
<text text-anchor="start" x="556.4389" y="-646.8" font-family="Times,serif" font-size="14.00" fill="#000000">spe.py</text>
<text text-anchor="start" x="556.4389" y="-630" font-family="Times,serif" font-size="14.00" fill="#000000">swf.py</text>
<text text-anchor="start" x="556.4389" y="-613.2" font-family="Times,serif" font-size="14.00" fill="#000000">tifffile.py</text>
<text text-anchor="start" x="556.4389" y="-596.4" font-family="Times,serif" font-size="14.00" fill="#000000">_bsdf.py</text>
<text text-anchor="start" x="556.4389" y="-579.6" font-family="Times,serif" font-size="14.00" fill="#000000">_dicom.py</text>
<text text-anchor="start" x="556.4389" y="-562.8" font-family="Times,serif" font-size="14.00" fill="#000000">_freeimage.py</text>
<text text-anchor="start" x="556.4389" y="-546" font-family="Times,serif" font-size="14.00" fill="#000000">_swf.py</text>
<text text-anchor="start" x="556.4389" y="-529.2" font-family="Times,serif" font-size="14.00" fill="#000000">_tifffile.py</text>
<text text-anchor="start" x="556.4389" y="-512.4" font-family="Times,serif" font-size="14.00" fill="#000000">__init__.py</text>
</g>
<!-- imageioimageioplugins&#45;&gt;12bsdf.pyldicom.pylexample.pylfeisem.pylffmpeg.pylfits.pylfreeimage.pylfreeimagemulti.pylgdal.pylgrab.pyllytro.pylnpz.pylpillow.pylpillowmulti.pylpillow_info.pylpillow_legacy.pylsimpleitk.pylspe.pylswf.pyltifffile.pyl_bsdf.pyl_dicom.pyl_freeimage.pyl_swf.pyl_tifffile.pyl__init__.pyl -->
<g id="edge26" class="edge">
<title>imageioimageioplugins&#45;&gt;12bsdf.pyldicom.pylexample.pylfeisem.pylffmpeg.pylfits.pylfreeimage.pylfreeimagemulti.pylgdal.pylgrab.pyllytro.pylnpz.pylpillow.pylpillowmulti.pylpillow_info.pylpillow_legacy.pylsimpleitk.pylspe.pylswf.pyltifffile.pyl_bsdf.pyl_dicom.pyl_freeimage.pyl_swf.pyl_tifffile.pyl__init__.pyl</title>
<path fill="none" stroke="#000000" d="M418.9672,-885.4991C447.2613,-877.5461 486.2036,-866.6 486.2036,-866.6 486.2036,-866.6 512.905,-835.8953 541.2985,-803.2449"/>
<polygon fill="#000000" stroke="#000000" points="544.226,-805.2122 548.147,-795.3696 538.9439,-800.6187 544.226,-805.2122"/>
</g>
<!-- 13shipped_resources_go_herel -->
<g id="node28" class="node">
<title>13shipped_resources_go_herel</title>
<polygon fill="none" stroke="#000000" points="693.945,-486.6 521.956,-486.6 521.956,-450.6 693.945,-450.6 693.945,-486.6"/>
<text text-anchor="start" x="530.2036" y="-464.4" font-family="Times,serif" font-size="14.00" fill="#000000">shipped_resources_go_here</text>
</g>
<!-- imageioimageioresources&#45;&gt;13shipped_resources_go_herel -->
<g id="edge27" class="edge">
<title>imageioimageioresources&#45;&gt;13shipped_resources_go_herel</title>
<path fill="none" stroke="#000000" d="M424.5544,-829.9286C452.1168,-822.1813 486.2036,-812.6 486.2036,-812.6 486.2036,-812.6 522.2036,-495.6 522.2036,-495.6 522.2036,-495.6 530.0305,-493.1355 540.9549,-489.6956"/>
<polygon fill="#000000" stroke="#000000" points="542.269,-492.9513 550.7561,-486.6094 540.1665,-486.2745 542.269,-492.9513"/>
</g>
<!-- 16fuzz_read.pyl -->
<g id="node32" class="node">
<title>16fuzz_read.pyl</title>
<polygon fill="none" stroke="#000000" points="652.1307,-432.6 563.7703,-432.6 563.7703,-396.6 652.1307,-396.6 652.1307,-432.6"/>
<text text-anchor="start" x="571.6107" y="-410.4" font-family="Times,serif" font-size="14.00" fill="#000000">fuzz_read.py</text>
</g>
<!-- imageiotestsfuzzers&#45;&gt;16fuzz_read.pyl -->
<g id="edge31" class="edge">
<title>imageiotestsfuzzers&#45;&gt;16fuzz_read.pyl</title>
<path fill="none" stroke="#000000" d="M418.6211,-443.2858C452.7814,-438.1101 510.7967,-429.32 553.6247,-422.831"/>
<polygon fill="#000000" stroke="#000000" points="554.2494,-426.2764 563.6122,-421.3178 553.2007,-419.3554 554.2494,-426.2764"/>
</g>
</g>
</svg>
